<svg width="483" height="91" viewBox="0 0 483 91" fill="none" xmlns="http://www.w3.org/2000/svg">
<path d="M39.7 44.5C39.7 36.4 33.6 30.7 26.1 30.7C18.6 30.7 12.5 36.5 12.5 44.5C12.5 52.4 18.6 58.3 26.1 58.3C33.6 58.3 39.7 52.6 39.7 44.5ZM39.8 68.6V62.3C36.1 66.6 30.6 69.3 24 69.3C10.3 69.3 0 58.7 0 44.5C0 30.3 10.8 19.6 24.3 19.6C30.7 19.6 36.1 22.3 39.8 26.5V20.4H52V68.6H39.8Z" fill="black"/>
<path d="M111.6 57.9C107.3 57.9 106.1 56.4 106.1 52.3V31H114V20.5H106.1V8.80002H93.5V20.5H77.3V17.6C77.3 13.6 78.9 12 83.3 12H86.1V2.70001H80.1C69.7 2.70001 64.8 6.00002 64.8 16V20.6H57.8V31H64.8V68.7H77.4V31H93.6V54.6C93.6 64.4 97.5 68.7 107.7 68.7H114.2V58H111.6V57.9Z" fill="black"/>
<path d="M156.7 40.2C155.8 33.9 150.5 30.2 144.3 30.2C138.1 30.2 133 33.9 131.7 40.2H156.7ZM131.6 47.7C132.5 54.8 137.8 58.9 144.5 58.9C149.8 58.9 153.9 56.5 156.3 52.6H169.2C166.2 62.8 156.7 69.4 144.3 69.4C129.2 69.4 118.7 59.2 118.7 44.7C118.7 30.2 129.9 19.7 144.6 19.7C159.5 19.7 170.2 30.3 170.2 44.7C170.2 45.8 170.1 46.8 169.9 47.8H131.6V47.7Z" fill="black"/>
<path d="M250 44.5C250 36.7 243.9 30.7 236.4 30.7C228.9 30.7 222.8 36.5 222.8 44.5C222.8 52.4 228.9 58.3 236.4 58.3C244 58.3 250 52.3 250 44.5ZM210.5 20.5H222.8V26.8C226.5 22.4 232 19.7 238.6 19.7C252.1 19.7 262.6 30.4 262.6 44.5C262.6 58.7 251.8 69.4 238.3 69.4C232 69.4 226.8 67 223.2 62.9V88.4H210.5V20.5Z" fill="black"/>
<path d="M306.8 44.5C306.8 36.4 300.7 30.7 293.2 30.7C285.7 30.7 279.6 36.5 279.6 44.5C279.6 52.4 285.7 58.3 293.2 58.3C300.7 58.3 306.8 52.6 306.8 44.5ZM306.9 68.6V62.3C303.2 66.6 297.7 69.3 291.1 69.3C277.4 69.3 267.1 58.7 267.1 44.5C267.1 30.3 277.9 19.6 291.4 19.6C297.8 19.6 303.2 22.3 306.9 26.5V20.4H319.2V68.6H306.9Z" fill="black"/>
<path d="M188.4 25.2C188.4 25.2 191.5 19.6 199.2 19.6C202.5 19.6 204.6 20.7 204.6 20.7V33C204.6 33 200 30.2 195.8 30.8C191.6 31.4 188.9 35.1 188.9 40.1V68.6H176.2V20.4H188.5V25.2H188.4Z" fill="black"/>
<path d="M376.4 20.5L345.4 88.3H332.3L344.5 62.1L324 20.5H338.8L350.8 48.3L363.1 20.5H376.4Z" fill="black"/>
<path d="M475.2 19.4L444.5 2.29998C435.5 -2.70002 424.2 3.59999 424.2 13.6V15.4C424.2 17 425.1 18.5 426.5 19.2L432.3 22.4C434 23.4 436.1 22.2 436.1 20.3V15.9C436.1 13.7 438.5 12.4 440.5 13.4L467.1 28.2C469.1 29.3 469.1 32 467.1 33.1L440.6 48C438.6 49.1 436.2 47.7 436.2 45.5V43.2C436.2 33.1 424.9 26.9 415.9 31.9L385.2 49C376.2 54 376.2 66.6 385.2 71.6L415.9 88.7C424.9 93.7 436.2 87.4 436.2 77.4V75.6C436.2 74 435.3 72.6 433.9 71.8L428.1 68.6C426.4 67.6 424.3 68.8 424.3 70.7V75.1C424.3 77.3 421.9 78.6 419.9 77.6L393.3 62.8C391.3 61.7 391.3 59 393.3 57.9L419.9 43.1C421.9 42 424.3 43.4 424.3 45.6V47.9C424.3 58 435.6 64.2 444.6 59.2L475.3 42.1C484.3 37 484.3 24.4 475.2 19.4Z" fill="black"/>
</svg>
