<svg width="428" height="127" viewBox="0 0 428 127" fill="none" xmlns="http://www.w3.org/2000/svg">
<path d="M243.2 25.3C245.5 25.3 247.7 24.4 249.3 22.9C250.9 21.3 251.9 19.2 251.9 16.9C251.9 14.6 250.9 12.4 249.3 10.8C247.7 9.20002 245.5 8.30001 243.2 8.20001C240.9 8.30001 238.8 9.20002 237.2 10.8C235.6 12.4 234.7 14.6 234.7 16.9C234.7 19.1 235.6 21.3 237.2 22.8C238.8 24.4 240.9 25.3 243.2 25.3Z" fill="#010202"/>
<path d="M302.5 33.4H323.6V35.1C322.4 35.3 321.3 35.7 320.3 36.2C318.4 37.1 314.5 41.4 311.6 48.7C306.6 61.3 301.3 76.2 295.8 93.3L293.7 99.8C292.8 102.7 292 104.6 291.6 105.8C291.2 107 290.7 108.7 289.8 110.9C289.3 112.5 288.6 114.1 287.8 115.6C286.8 117.5 284.8 121.4 283.3 122.6C280.9 124.6 277.3 126.9 272.8 126.6C264.1 126.6 257.5 120.1 257.4 112.4C257.4 107.2 260.7 103.7 265.7 103.7C269.3 103.7 272.5 105.6 272.5 109.7C272.5 112.6 269.6 115.7 269.6 117.2C269.6 121.2 271.9 123 276.4 123C280 123 282.9 120.7 285.1 116.1C288.1 110.9 288.3 105.1 285.9 98.8L267.4 50.2C263.2 39 259.9 35.3 256 34.9V33.2H285.1V34.9C281.6 35.3 279.8 37.3 279.8 41C279.8 43.7 280.8 47.8 282.7 53L286.2 62.4C290.2 72.6 293.4 81.5 295.1 87.1C298.8 75.5 302.3 65.3 305.6 56.4C308 49.8 309.2 45 309.2 42.2C309.2 37.2 306.5 34.9 302.4 34.9L302.5 33.4Z" fill="#010202"/>
<path d="M99.7 95.5C96 94.9 92.8 91.5 92.8 84.5V0L71.6 4.60001V6.39999C75.2 5.99999 78.8 9.2 78.8 16V84.6C78.8 91.2 75.2 95.1 71.6 95.6C71.3 95.7 70.9 95.7 70.6 95.7C68.8 95.8 66.9 95.5 65.2 94.8C62.4 93.6 60 91.4 58 88.1L48.2 72.5C46.1 69.2 43.1 66.7 39.4 65.3C35.8 63.9 31.8 63.7 28 64.7L39 52.6C47.3 43.4 55.1 37.6 62.4 35.1V33.4H38.1V35.1C44.4 37.5 44 42.9 36.8 51.3L21.3 69.3V0L0.0999985 4.60001V6.39999C3.7 6.39999 7.3 10 7.3 16.2V84.6C7.3 92.1 3.8 95.1 0.0999985 95.6V97.3H28.2V95.6C23.6 95 21.3 91.4 21.3 84.6V72L27.3 65.4L41.9 89.2C45.4 94.9 48.6 97.2 53.7 97.2H102.6V95.9C102.8 95.9 101.4 95.8 99.7 95.5Z" fill="#010202"/>
<path d="M158.1 87.4V58.9C157.8 40.3 149.9 31.8 131.9 31.8C126.1 31.8 120.5 33.6 116 37.2C111.2 40.8 108.9 44.9 108.9 49.6C108.9 54.2 111.5 57.6 115.7 57.6C120.2 57.6 123.4 55.1 123.4 51.5C123.4 48.8 121.6 45.1 121.6 42.6C121.6 38 125.1 34 131.1 34C138.8 34 144.3 39.7 144.3 52.5V60.1L137.9 61.6C134.6 62.2 131.7 62.9 129.6 63.5C127.4 64.1 124.6 65 121.3 66.3C114.6 68.9 111 71.3 107.9 75.9C106.4 78.1 105.6 80.7 105.6 83.4C105.6 94 113 98.8 123.5 98.8C131.7 98.8 140.5 94.5 144.4 86.3C144.5 88.9 145.1 91.4 146.2 93.7C150.6 102.5 165 97.3 165 97.3V95.6C158.6 96.7 158.1 89.2 158.1 87.4ZM144.4 78.6C144.4 82.8 142.9 86.2 139.8 88.7C136.8 91.1 133.8 92.4 130.6 92.4C124.3 92.4 120.2 88.3 120.2 80.8C120.2 77.2 122.2 73.9 123.8 72C125.1 70.7 126.6 69.6 128.3 68.8C130.5 67.7 131.6 67.1 133.1 66.4L139 64.2C141.9 63.1 143.7 62.4 144.5 62L144.4 78.6Z" fill="#010202"/>
<path d="M428 33.4H378.1V0H428L417.5 16.7L428 33.4Z" fill="#010202"/>
<path d="M326.5 89.1C320.3 82.7 316.9 74.2 317 65.3C316.9 60.9 317.7 56.6 319.4 52.5C321 48.4 323.5 44.7 326.5 41.6C332.8 35 340.5 31.6 349.5 31.6C358.4 31.6 366.1 34.9 372.4 41.6C375.5 44.7 378 48.4 379.6 52.4C381.3 56.5 382.1 60.8 382 65.2C382.1 69.6 381.2 74 379.6 78C377.9 82.1 375.5 85.8 372.4 88.9C366.1 95.4 358.4 98.7 349.5 98.7C340.5 98.9 332.8 95.6 326.5 89.1ZM361.1 42.7C358.6 37.8 355.2 34.9 351.3 34.1C343.4 32.5 336.3 40.6 333.7 53.5C332.6 59.3 332.3 65.2 332.9 71.1C333.5 77 335.1 82.7 337.7 88C340.2 92.9 343.6 95.8 347.5 96.6C355.4 98.2 362.7 89.7 365.3 76.7C367.6 65.8 366.5 52.5 361.1 42.7Z" fill="#010202"/>
<path d="M250.6 84.5V33.4H205.4V34.9C211.4 35.8 214.3 40.3 211.6 47.7C197.5 85.8 198.4 84.1 197.5 87.2C196.6 84.3 194.5 77 191.2 68C187.9 59 185.7 52.9 184.8 50.3C181.3 39.7 182.5 35.8 188.1 35.1V33.4H158.8V35.1C163.2 36 167 41 170.2 49.9L174.7 61.5C179.6 74 185.4 91.3 187.4 97.2H197.1C200.2 88.1 212.8 51.9 214.5 48.2C216.3 44 218.4 40.8 220.7 38.6C221.8 37.4 223.2 36.5 224.7 35.9C226.2 35.3 227.8 35 229.4 35C229.4 35 236.5 35 236.5 41.8V47.5C236.5 47.6 236.5 47.6 236.5 47.7V84.6C236.5 91.7 233 95.1 229.4 95.6V97.3H257.4V95.6C253.7 95 250.6 91.7 250.6 84.5Z" fill="#010202"/>
</svg>
