<svg width="600" height="124" viewBox="0 0 600 124" fill="none" xmlns="http://www.w3.org/2000/svg">
<path d="M467.3 46.8C459.7 46.8 453.4 49.5 448.9 54.5L449.8 50C450.1 48.6 449.1 47.4 447.7 47.4C446.3 47.4 444.8 48.6 444.6 50L431.4 118.5C431.1 119.9 432.1 121.1 433.5 121.1C434.9 121.1 436.4 119.9 436.6 118.5L441.5 93C443.3 96.3 447.5 100.7 456.9 100.7C464.3 100.7 470.4 98.4 475.2 94C480.2 89.4 483.6 82.5 485.3 73.6C487 64.7 486.3 57.9 483.1 53.3C480 49 474.7 46.8 467.3 46.8ZM457.8 96C446.6 96 442.2 88.3 445 73.7C447.8 59 454.9 51.5 466 51.5C478.2 51.5 482.7 58.8 479.8 73.7C476.9 89 469.9 96 457.8 96ZM581.2 70.9C574.6 68.4 568.3 66.1 569.5 59.9C570.1 56.8 572.6 51.6 582.8 51.6C588.5 51.6 592.1 53.2 595.2 57.1C595.8 57.8 596.5 57.8 596.7 57.8C598.1 57.7 599.3 56.7 599.6 55.4C599.7 54.8 599.6 54.2 599.3 53.7V53.6C596.1 49.1 590.9 46.8 583.7 46.8C573.3 46.8 565.8 51.8 564.3 59.9C562.4 69.6 571 72.8 578.6 75.7C585.1 78.2 591.3 80.5 590.2 86.4C588.6 94.8 579.8 96 574.7 96C567.7 96 563.4 94.1 560.2 89.6C559.8 89.1 559.3 88.9 558.7 88.9C557.3 89 556.1 90 555.8 91.3C555.7 91.9 555.8 92.5 556.1 93C558.2 96.9 564.5 100.9 573.8 100.9C585.6 100.9 593.7 95.5 595.4 86.5C597.2 76.8 588.7 73.6 581.2 70.9ZM565.4 33.2H559.9L561 27.7C561.3 26.3 560.3 25.1 558.9 25.1C557.5 25.1 556.1 26.3 555.8 27.7L554.7 33.2H549.2C547.8 33.2 546.4 34.4 546.1 35.8C545.8 37.2 546.8 38.4 548.2 38.4H553.7L552.6 43.9C552.3 45.3 553.3 46.5 554.7 46.5C556.1 46.5 557.5 45.3 557.8 43.9L558.9 38.4H564.4C565.8 38.4 567.2 37.2 567.5 35.8C567.8 34.7 567.1 33.5 565.9 33.2C565.8 33.3 565.6 33.2 565.4 33.2ZM126.8 86.4C129.5 87.8 134.3 89.7 138.9 89.6C143.1 89.6 145.3 87.3 145.3 84.6C145.3 81.9 143.7 80.1 139.2 77.5C133.6 74.3 129.4 69.8 129.4 63.9C129.4 53.5 138.3 46.1 151.3 46.1C157 46.1 161.4 47.2 163.8 48.6L160.4 59.1C157.5 57.8 154.4 57.1 151.2 57.1C147 57.1 144.3 59 144.3 62C144.3 64.4 146.2 66.1 150 68.1C155.8 71.4 160.6 75.9 160.6 82.3C160.6 94.1 151 100.8 137.7 100.7C131.6 100.6 125.9 99 123.1 97C123.2 97 126.8 86.4 126.8 86.4ZM163.6 100.3L178 25.1H192.8L187.1 54.2L187.3 54C191.3 49.3 196.4 46 203 46C210.7 46 215.1 51 215.1 59.3C215.1 61.9 214.7 66 214 69.3L208.2 100.2H193.4L199 70.2C199.4 68.2 199.6 65.5 199.6 63.5C199.6 60.3 198.3 57.9 195 57.9C190.3 57.9 185.2 64.2 183.3 74L178.4 100.2L163.6 100.3ZM268.7 66.7C268.7 85.1 256.9 100.7 239.4 100.7C226.1 100.7 219 91.5 219 80C219 62.1 230.8 46 248.6 46C262.5 46 268.7 56.1 268.7 66.7ZM234.2 79.7C234.2 85.1 236.3 89.4 241.4 89.4C249.2 89.4 253.6 75.4 253.6 66.3C253.6 61.9 251.9 57.4 246.6 57.4C238.6 57.3 234.2 71.2 234.2 79.7ZM265.2 121.2L275.5 67C276.7 60.9 277.9 53 278.5 47.4H291.6L290.7 55.8H290.9C294.9 50.2 300.7 46.5 306.6 46.5C317.4 46.5 321.8 55.2 321.8 65.1C321.8 83.1 310.4 100.9 293 100.9C289.4 100.9 286 100.3 284.3 98.9H284L279.9 121.2H265.2ZM286.3 87.4C287.9 88.7 289.7 89.5 292.4 89.5C300.7 89.5 306.4 75.9 306.4 66.3C306.4 62.3 305 58.1 300.5 58.1C295.3 58.1 290.5 64.2 288.8 73.5L286.3 87.4ZM322.3 100.3L332.3 47.4H347.2L337.1 100.3H322.3ZM341.5 41.9C337.3 41.9 334.5 38.3 334.5 33.9C334.5 29.1 338.3 25 343 25C347.5 25 350.4 28.5 350.4 32.8C350.3 38.3 346.3 41.8 341.7 41.8C341.7 41.9 341.5 41.9 341.5 41.9ZM350 100.3L357.8 58.5H350.9L353 47.4H359.9L360.3 44.7C361.5 38.5 363.8 32.1 368.9 27.9C372.9 24.5 378.1 22.9 383.4 22.9C387 22.9 389.7 23.4 391.4 24.2L388.5 35.8C387 35.3 385.4 35 383.8 35C378.9 35 375.9 39.7 375 44.8L374.5 47.5H384.8L382.8 58.6H372.6L364.8 100.4L350 100.3ZM403.3 47.4L405.7 71.1C406.2 75.3 406.6 79.4 407 83.6H407.2C408.4 80.8 409.5 76.7 411.6 71L420.6 47.4H436.1L418 86.1C411.6 99.4 405.3 109.1 398.6 115.4C393.3 120.3 387.1 122.8 384.1 123.4L380 110.8C382.5 109.9 385.6 108.6 388.4 106.6C391.8 104.2 394.7 101 396.5 97.7C396.9 96.9 397 96.4 396.8 95.4L387.9 47.3C387.7 47.4 403.3 47.4 403.3 47.4ZM553.3 52.4C551.9 52.4 550.5 53.6 550.2 55L545.2 81C542.5 94.2 534.4 96 526.7 96C513 96 512.6 88.2 514.1 80.5L520 50C520.3 48.6 519.3 47.4 517.9 47.4C516.5 47.4 515.1 48.6 514.8 50L508.9 80.5C507.7 86.7 508.1 91.2 510.2 94.5C512.8 98.6 518 100.7 525.8 100.7C533.6 100.7 539.6 98.6 543.8 94.5C547.1 91.2 549.3 86.6 550.5 80.5L555.4 54.9C555.7 53.6 554.7 52.4 553.3 52.4ZM506 25.2C504.6 25.2 503.1 26.4 502.9 27.8L489.5 97.5C489.2 98.9 490.2 100.1 491.6 100.1C493 100.1 494.4 98.9 494.7 97.5L508.1 27.8C508.4 26.4 507.4 25.2 506 25.2ZM72.5 14.2L68.9 15.3C68.5 13.8 67.9 12.4 67.2 11C64.6 6.1 60.9 3.5 56.4 3.5C56.1 3.5 55.8 3.49998 55.5 3.59998C55.4 3.39998 55.2 3.29998 55.1 3.09998C53.1 0.999976 50.6 0 47.6 0C41.7 0.2 35.9 4.39999 31.2 11.9C27.9 17.2 25.3 23.8 24.6 29L13.1 32.6C9.7 33.7 9.6 33.8 9.2 37C8.9 39.4 0 108.1 0 108.1L73.7 120.8V14.1C73.1 14.1 72.8 14.1 72.5 14.2ZM55.5 19.5L43.1 23.4C44.3 18.8 46.6 14.2 49.4 11.2C50.4 10.1 51.9 8.79998 53.6 8.09998C55.2 11.5 55.5 16.2 55.5 19.5ZM47.5 4C48.7 3.9 50 4.29999 51 4.89999C49.3 5.79999 47.8 6.99999 46.5 8.39999C42.8 12.4 39.9 18.6 38.8 24.6L28.5 27.8C30.6 18.4 38.4 4.3 47.5 4ZM36.1 57.6C36.5 63.9 53 65.2 53.9 79.9C54.6 91.5 47.8 99.4 37.9 100C26 100.8 19.5 93.8 19.5 93.8L22 83.1C22 83.1 28.6 88.1 33.8 87.7C37.2 87.5 38.5 84.7 38.3 82.7C37.8 74.5 24.4 75 23.5 61.6C22.8 50.3 30.2 38.8 46.6 37.8C52.9 37.4 56.1 39 56.1 39L52.4 53C52.4 53 48.2 51.1 43.3 51.4C36.1 51.9 36 56.5 36.1 57.6ZM59.4 18.3C59.4 15.3 59 11.2 57.6 7.59998C62 8.39998 64.2 13.5 65.2 16.5C65.1 16.5 59.4 18.3 59.4 18.3ZM75.8 120.6L106.4 113C106.4 113 93.2 24 93.2 23.4C93.1 22.9 92.7 22.5 92.1 22.4C91.7 22.4 83.1 22.2 83.1 22.2C83.1 22.2 77.9 17.1 75.9 15.2V120.6H75.8Z" fill="black"/>
</svg>
